<svg width="100" height="100" viewBox="0 0 100 100" xmlns="http://www.w3.org/2000/svg">
  <!-- Octagon Background - Slightly oversized to "bleed" to edges -->
  <path d="M28 -2 L72 -2 L102 28 L102 72 L72 102 L28 102 L-2 72 L-2 28 Z" fill="black"/>
  
  <!-- Taiji Center - Scaled Up slightly more -->
  <g transform="translate(50, 50) scale(0.65)">
    <circle cx="0" cy="0" r="48" fill="white"/>
    <path d="M 0 -48 A 48 48 0 0 1 0 48 A 24 24 0 0 1 0 0 A 24 24 0 0 0 0 -48" fill="black"/>
    <circle cx="0" cy="-24" r="9" fill="white"/>
    <circle cx="0" cy="24" r="9" fill="black"/>
  </g>

  <!-- Bagua Trigrams - Thicker lines and moved closer to center for better visibility -->
  <g fill="none" stroke="white" stroke-width="6" stroke-linecap="round">
    <!-- Top -->
    <g transform="rotate(0, 50, 50) translate(50, 14)">
      <line x1="-14" y1="0" x2="14" y2="0"/>
    </g>
    <!-- Bottom -->
    <g transform="rotate(180, 50, 50) translate(50, 14)">
      <line x1="-14" y1="0" x2="-4" y2="0"/> <line x1="4" y1="0" x2="14" y2="0"/>
    </g>
    <!-- Right -->
    <g transform="rotate(90, 50, 50) translate(50, 14)">
      <line x1="-14" y1="0" x2="-4" y2="0"/> <line x1="4" y1="0" x2="14" y2="0"/>
    </g>
    <!-- Left -->
    <g transform="rotate(270, 50, 50) translate(50, 14)">
      <line x1="-14" y1="0" x2="14" y2="0"/>
    </g>
  </g>
</svg>
