<?xml version="1.0" encoding="utf-8"?>
<!-- Generator: Adobe Illustrator 22.0.1, SVG Export Plug-In . SVG Version: 6.00 Build 0)  -->
<svg version="1.1" id="圖層_1" xmlns="http://www.w3.org/2000/svg" xmlns:xlink="http://www.w3.org/1999/xlink" x="0px" y="0px"
	 viewBox="0 0 240 32" style="enable-background:new 0 0 240 32;" xml:space="preserve">
<style type="text/css">
	.st0{fill:#171411;}
	.st1{fill-rule:evenodd;clip-rule:evenodd;fill:#171411;}
</style>
<g>
	<path class="st0" d="M191.1,3.2c2,0,2.1,0.4,3.2,1.5L194,7l4.1,3.5c2.1,1.2,5.3,0.6,6.6,2.5l-0.7,1c-0.7,0.8-2.1,0.6-2.7,0.5h-3.4
		c-2.8-1.1-4.1-4-6.5-5.5c-3.3,2.2-5.3,9.2-10.7,8.5l-0.3-1.2l3.4-2.3C186.8,10.8,188.7,7.1,191.1,3.2z"/>
	<path class="st0" d="M77.7,16.1c2.4,0,2.7,0.8,4.6,1c0.4-1.1,1.2-2,0.8-3.3h-0.2c-1.8,0.6-2.4-0.2-3.9-0.5
		c-0.2,0.9-1.1,1.9-1.9,2.3c-0.7,0.3-1.7-0.1-2.4-0.3v-0.7c1.4-3.6,4.6-5.4,6.1-10.1c1.6,0.1,1.9,0.7,3.1,1.2c0,2.4-1.3,3.2-1.9,5.2
		h0.7l3.6-3.2c1.8,0,2.1,0.7,3.1,1.5v0.2c-1.1,1.3-3,1.5-4.3,2.7l1.2,2.5c0.6,2.8-1.6,3.4-1.9,5.7l2.2,2c2,1.3,5,1.6,7.7,2.2
		l0.2,0.3v0.7c-5.6,4-8.2,0.7-11.9-2.3c-2.3,0.4-6.3,4.4-8.5,2.3l-0.2-0.8c1.7-1.8,4.9-2.2,6.5-4.2L77.7,17V16.1z"/>
	<path class="st0" d="M7,3.8c2.3-0.1,5.6,2.3,3.9,3.7c-1,1.8-2.1,0.4-3.7,1C5.9,8.9,4.3,12.2,2,10.8l0.3-0.3
		c1.1-1.8,3.9-1.8,4.4-4.2C6.4,5.6,6,5.5,5.8,4.5L7,3.8z"/>
	<path class="st0" d="M41.7,6.3c1.8,0.4,3.2,0.4,3.6,2.2c-1.6,1.5-2.8,0.5-3.9-1.2C41.5,6.7,41.5,6.7,41.7,6.3z"/>
	<path class="st1" d="M51.4,11.5v0.2c-0.3,0.2-0.1,0-0.3,0.3h-0.5l0.2-0.7h0.7V11.5z M57.7,12.1c-1.9,0.1-2.3,0.6-3.8,0.8l-0.3-0.8
		c0.9-1.1,1.7-1.8,3.2-2.3c0.4-0.8,0.2-2,0.2-3.3l-2.2-1L54,6l-0.7,2.8l-1,0.7c-1.8-0.3-3.1-2.4-4.9-1.8c-1.4,1.1,0.6,2.8-2.5,4.8
		l0.7,1.5l2.2-0.5v0.8c-1.4,0.8-5,1-6,2.3c-0.4,0.6-0.2,0.3,0,1l4.6-1h0.2l0.2,0.8c-0.8,1.4-2.3,2.3-2.4,4.2l0.5,0.3
		c1.5,1,4.6-3.3,4.9-4.8l-0.3-1.7c2.4-0.4,5.3-1.2,8.9-1.2l0.5-0.7V13L57.7,12.1z"/>
	<path class="st0" d="M191.9,10.8c1.6-0.1,2.7,0.4,2.9,1.7c-0.8,0.9-1.6,1.5-2.9,2c0.4,0.9,1.4,1.1,2.2,1.5c0.4,1.2-0.1,1.8-0.2,2.5
		c1.1,0.4,1.8,0.9,2.4,1.8c-0.9,1.1-2.1,1.6-3.4,2.3c0.6,1.8,4.5,0,6.5,0.8l0.5,1l-0.3,1.3c-1.1,0.4-14.8,1.8-14.8,1.8l-1.5-0.8
		v-0.7l1.2-1.3c0.8,0.3,1.7,0.5,2.4-0.2c0.1-0.7-0.9-2.2-1.4-3.2c0.3-0.4,0.4-0.5,0.8-0.8c0.7,0.1,2,0.1,2.7-0.7l-1.7-1.7
		c0.1-0.9,0.2-1,0.5-1.5l1.7-0.8v-0.7c-0.6-0.8-1.3-0.9-1.5-2.2l0.2-0.2C189,12,191,11.8,191.9,10.8z"/>
	<path class="st0" d="M38,12c1.4,0,2.1,0.5,2.9,1l0.3,0.8L40,15.6l-1.4-0.2c-0.4-1-1.1-2.1-1.2-3L38,12z"/>
	<polygon class="st0" points="216.4,16.3 216.4,17.1 215.8,17.1 215.2,16.6 215.2,16.5 215.4,16.3 	"/>
	<path class="st0" d="M54.2,16.8c1.6,0.2,7.6-0.2,6.3,2.2l-0.7,1c-3.3,0-4.7-1.8-7.8-2l0.3-0.8L54.2,16.8z"/>
	<path class="st0" d="M50.6,24l0.2,1.2l0.5,0.8c2.2,0,6.2-1.5,6.6-1.2l1.5,1l-0.2,0.5c-0.2,0.9-0.5,0.9-1,1.5
		c-3.8,0.1-5.6,0.9-8.7-0.2c-1-1.6-1.6-4-0.3-6c1.6,0.1,1.4,0.8,2.6,1.2l0.3-0.2c0.4-1.1,0.5-1.2,0-2.2h-2.4l0.7-1.2
		c2.1,0,3.4-0.3,4.9,0.8c0.1,2.2-0.5,3.6-2,4.2C52.2,24.7,51.6,24.1,50.6,24z"/>
	<path class="st0" d="M41.7,19.6h1.2l0.2,0.3c0.3,2.7-1,3-0.2,6.3l-0.8,1h-1c-1-1.2-1.9-1.6-2-3.7l0.7-1.8
		C41.2,21.8,41.6,21,41.7,19.6z"/>
	<path class="st1" d="M154.8,20.1l-0.2-0.5c0.5,0.3,0.2,0.1,0.5,0.5H154.8z M154.3,11.7c-0.4,0.7-1,0.6-1.5,1.2h-0.9
		c0.4-1.1,1.1-1.2,1.9-1.8h0.7L154.3,11.7z M152.2,16v-0.8l1.5-0.8l0.3,0.2l0.2,0.5C153.8,15.7,153.4,15.9,152.2,16z M152.1,18.6V18
		l1.4-0.5c0.7,0.4,0.9,1,1,2L152.1,18.6z M151.6,21.6l-0.3,0.2h-0.7l0.7-2h0.7L151.6,21.6z M166,22.5c-1.1-1.6-5.2-0.9-7-1.8
		l-2.1-1.8l0.3-2.2l3.2-0.3c0.5-0.6,0.8-0.8,1-1.8v-0.2c-1.2-0.8-2.5-0.6-4.1-0.3l0.7-6.7c1.2-0.1,1.3,0.3,2.6,0.5h0.2
		c0.5-0.6,1.1-1,0.7-2c-0.8-1.4-3.8-2.6-5.3-3.3c-0.4,0.3-0.9,0.3-1.7,0.3l-0.3,0.5l1,0.2v2.3l-3.4,0.8h-0.2l-0.2-2.2h-0.7
		c-0.3,0.8-0.7,1.8-0.7,2.5c-0.8,0.9-2,1.7-3.2,2.2l-0.5,1.3c3.6,1.5,4.6-3.6,8.2-2.7h0.3V9c-1.8,0.3-2.4,0.5-4.1,1.3
		c0.3,2.5-0.8,2.5-0.8,5.5c-1.2,1-3.7,1.8-4.1,3.5l-0.2,0.7c1.6,0.4,2.4-0.6,3.6-0.5c-0.5,2.4-2.4,5-4.8,5.7l-0.3,0.5v0.7
		c3.4,0.6,4.3-2.8,6.1-4.3c0.5,0.8,1.1,1.9,0.9,2.8c0.1,1.4-2.1,1.1-3.1,2l1.7,2c2.4-0.2,4.5-1.8,7.5-0.8l0.5-0.7
		c0.6-0.5,0.8-0.6,0.9-1.7c-1.1-0.7-4.7-0.5-3.9-2.2c0.7-1.4,0.7-1.4,0.3-3c2.3,1.3,3.6,3.6,6.1,4.8l4.4-1.2
		C166.3,23.8,166.3,23.2,166,22.5z"/>
	<path class="st1" d="M123.3,16.6c-0.5,0.6-0.8,0.9-1,1.8c-0.6,0.2-1.4,0-1.9-0.8l-0.5-0.5c0.9-0.6,2.1-1,2.9-1.7h0.5V16.6z
		 M118.7,16c-0.4,0.4-0.5,0.5-1.2,0.7l0.7-1.2h0.5V16z M114.1,23.6c-0.3-0.1-0.5-0.1-0.6-0.1c-0.1,0-0.1-0.1-0.3-0.2
		c0.2-0.7,0.2-0.5,0.5-1l0.7,0.3L114.1,23.6z M124.3,21.5c0.3-1.7,1.4-3.1,2.6-4c-0.2-1.8-1-1.4-1.4-2.8l3.6-0.5l0.7-0.7
		c-0.2-1-0.6-1.3-1.4-1.7c-1.3,0.2-2.2,0.6-3.4,1.2c0.2-0.9,0.5-1.5,1.2-1.8c-0.4-1.5-1.5-2.5-3.1-2.8c-1.8,1.4-1.7,5.1-3.9,6
		c-0.4-1.5-1.3-0.9-1.7-2.3h2.6c0.6-1.3,0-1.7-0.5-2.7l1.9-2.2l-0.3-0.8l-1.9-0.2l-0.7,1c-1.7-0.5-2.6-1.5-4.8-1.5h-0.2
		c-0.4,0.6-0.2,1.4-0.7,2c-0.4,0.7-1.2,1-2,1.2l-0.2,0.7l1.2,1.7c-1.1,0.7-2.5,1.5-4.1,1.7l-0.5,1.3l0.3,1c2.3,0.5,3.4-1.3,5.4-1.7
		c-0.3,1.2-1.4,1.8-2.7,2c-1.1,2.2-1.3,5.4-4.6,6.5l-0.3,0.8h1.4c2.6-1.8,4.8-6,8.2-6.7c-0.3,0.7-1.1,0.9-1.7,1.2
		c-0.1,0.7-0.1,0.9,0.2,1.5c-0.2,1.2-1.8,2-2.9,2.3l-0.5,0.7c0.4,2,3,4.9,4.6,5.8l1.4-0.3c1.1-2,0.8-5.9,2.1-7.8
		c1,0.6,1.4,1.5,2,2.3v0.5c-0.8,0.6-1.6,1.3-2,2.2l0.8,0.8l0.5,0.2c1.2-0.1,1.7-0.5,2-1.3c2.3,0.6,5.4,3.8,8.3,1.2l0.5-0.3v-0.8
		C128.4,23.2,125.8,22.8,124.3,21.5z"/>
	<path class="st1" d="M12.6,22.5v0.3c-1.3-0.4-2.4-0.8-3.6-0.7l-0.2-0.3c0.8-1.2,1.9-1.4,3.2-1l0.5-0.7V22.5z M6.5,26.3l-2-1.2
		c0.3-1,0.7-1,1.5-1.5c0.4,0.4,0.4,1.8,0.7,2.3L6.5,26.3z M16,17.5c-0.1-4.8,3.2-8.1,6.6-9.5c0.5-2.1-1.4-2.6-3.6-2.5
		c-2,2.4-3.5,5.4-6,7.3l0.2,6c-0.7-0.3-1-0.8-1.4-1.3c-1.4,0.3-2.6,1.2-3.9,1c-1.1,0-0.9,0-0.8-0.7l3.4-2c0.4-0.8,0.2-1.2,0-2.2
		l1.7-1.2L12.1,11c-1.2-0.4-1.7-0.8-3.4-0.8c-0.7,1.1-1.4,3-1.9,4c-1.1,0.2-2.1-0.6-2.9-1.2c-0.7,1,0.4,3.4,0.3,4.8l1.2,0.3
		c1.1,3.1-3.8,5-5.4,7.3v1c1.2,0.8,1.5,0.4,3.1,0.2l0.3,1.7c2.6,0.3,2.5,0.6,4.1,2l1-0.8c0.4-1.7,0.5-2.7,0-4.2
		c0.9-0.4,2.4-0.3,3.8-0.3l0.2,0.2l-0.7,2.3l1.2,0.8l1.5-0.3c1.3-0.9,1.8-6.1,1.9-8l2.7-1.3c2.3,2.4-0.8,10,0.9,12.3
		c0.2,0.3,0,0.1,0.3,0.3c0.4,0.3,1.1,0.2,1.9,0L22.6,18H24l1-1.3v-1.3C21.1,15.4,19.6,17.4,16,17.5z"/>
	<path class="st1" d="M222.4,17.8l-0.5-0.7c0.5-0.8,1.4-1,2.2-1.5h0.8l0.2,0.3C223.9,16.7,223.3,16.9,222.4,17.8z M226.8,15l1.4-0.7
		l0.5,0.2l1.2-0.2l-0.3,1.2l-1.9-0.3l-0.5,1l-0.3,0.2V15z M229,17.6c-0.4,0.2-0.2,0.4-0.7,0.2l0.2-0.3h0.5V17.6z M224.1,19.5h-0.9
		l-0.2-0.3c0.3-0.6,0.9-0.7,1.4-1.2c0.6,0.3,0.2-0.1,0.5,0.5L224.1,19.5z M228,24.5l-2.5,0.5l-0.2-0.7l1.7-0.8l0.7,0.2h0.3V24.5z
		 M228,27.1c-0.6,0.7-1.3,1-2.5,1l-0.2-0.3c0.5-0.6,0.9-0.5,1.7-0.8h1V27.1z M239.9,10.2c-4.1-2-8.5-2.8-10.5-6.7l0.3-1.7L229.2,1
		l-2.7-0.5c-1.4,2-7.3,10.1-7.3,12.3c-0.9,0.5-1.9,1.1-2.9,1.7l-0.2,0.5l0.7,0.5c2.5,0,5.1-2.5,6.1-4h0.3l1.4,1.2
		c0.3,0.3,0.2,0.2,0.3,0.8c-1.9,1.4-3.7,2.2-4.9,4.2c0,1.8,0.6,3.4,1.7,4.2c1.1,0.3,4.4-1.2,5.4-1.7c0.4,0.5,0.8,0.8,1.2,1.2
		c-1.7,0.5-2.5,1.6-4.1,1.8c-0.3,2.1-1.2,4.9-0.2,7c0,0,6.1,0.8,6.6,0.7c0.1-3.6,0.8-7.3-0.9-9.3l1.9-1.7c1.2-2.4,0.1-3.7,2.6-4.8
		c-0.9-3.5-3.9-2.3-6.8-1.8h-0.2l-0.2-1.3c0.9-0.4,1.2-0.8,1.9-1.3V9.8L228.5,9c-1.5-0.8-2.7-0.3-3.9,0.5h-0.5
		c0.4-1.2,2.1-3.4,3.2-4c4.5,3.7,3.9,6,11.4,7.5l0.8-0.5C240,11.8,240.1,11,239.9,10.2z"/>
</g>
</svg>
